<svg height="512pt" viewBox="0 0 512 512" width="512pt" xmlns="http://www.w3.org/2000/svg">
<path d="m0 497c0 8.285156 6.714844 15 15 15h181c8.285156 0 15-6.714844 15-15 0-58.449219-47.101562-106-105-106-28.046875 0-54.59375 11.101562-74.746094 31.253906s-31.253906 46.699219-31.253906 74.746094zm106-76c36.289062 0 66.640625 26.253906 73.53125 61h-147.976562c7.1875-34.304688 38.367187-61 74.445312-61zm0 0"/><path d="m481 316c0-41.351562-33.640625-74.996094-74.992188-75 1.910157 0 3.839844-.367188 5.675782-1.117188 5.632812-2.308593 9.316406-7.792968 9.316406-13.882812v-46c49.742188 0 91-40.230469 91-90 0-24.03125-9.574219-46.667969-26.957031-63.734375-17.25-16.9375-39.992188-26.265625-64.042969-26.265625h-90c-31.269531 0-58.863281 16.035156-75 40.308594-16.136719-24.273438-43.730469-40.308594-75-40.308594h-90c-49.742188 0-91 40.230469-91 90 0 49.742188 41.230469 90 91 90v46c0 6.089844 3.683594 11.574219 9.316406 13.882812 1.839844.75 3.765625 1.117188 5.675782 1.117188-41.351563.003906-74.992188 33.648438-74.992188 75 0 41.355469 33.644531 75 75 75s75-33.644531 75-75-33.644531-74.996094-74.996094-75c3.941406-.003906 7.816406-1.558594 10.691406-4.480469l55.589844-56.519531h8.714844c31.269531 0 58.863281-16.035156 75-40.308594 16.136719 24.273438 43.730469 40.308594 75 40.308594h8.714844l55.589844 56.519531c2.875 2.921875 6.746093 4.480469 10.691406 4.480469-41.351563.003906-74.996094 33.644531-74.996094 75s33.644531 75 75 75 75-33.644531 75-75zm-330 0c0 24.8125-20.1875 45-45 45s-45-20.1875-45-45 20.1875-45 45-45 45 20.1875 45 45zm30-166c-15.378906 0-20.273438-1.027344-25.695312 4.480469l-34.304688 34.878906v-24.359375c0-8.285156-6.714844-15-15-15h-15c-33.636719 0-61-26.914062-61-60s27.363281-60 61-60h90c33.085938 0 60 26.914062 60 60s-26.914062 60-60 60zm210 15v24.359375l-34.304688-34.878906c-2.820312-2.867188-6.675781-4.480469-10.695312-4.480469h-15c-33.085938 0-60-26.914062-60-60s26.914062-60 60-60h90c33.636719 0 61 26.914062 61 60s-27.363281 60-61 60h-15c-8.285156 0-15 6.714844-15 15zm15 196c-24.8125 0-45-20.1875-45-45s20.1875-45 45-45 45 20.1875 45 45-20.1875 45-45 45zm0 0"/><path d="m406 391c-57.898438 0-105 47.550781-105 106 0 8.285156 6.714844 15 15 15h181c8.285156 0 15-6.714844 15-15 0-28.046875-11.101562-54.59375-31.253906-74.746094s-46.699219-31.253906-74.746094-31.253906zm-73.53125 91c6.890625-34.746094 37.242188-61 73.53125-61 36.078125 0 67.257812 26.695312 74.445312 61zm0 0"/><path d="m91 90c0 8.285156-6.714844 15-15 15s-15-6.714844-15-15 6.714844-15 15-15 15 6.714844 15 15zm0 0"/><path d="m151 90c0 8.285156-6.714844 15-15 15s-15-6.714844-15-15 6.714844-15 15-15 15 6.714844 15 15zm0 0"/><path d="m211 90c0 8.285156-6.714844 15-15 15s-15-6.714844-15-15 6.714844-15 15-15 15 6.714844 15 15zm0 0"/><path d="m451 90c0 8.285156-6.714844 15-15 15s-15-6.714844-15-15 6.714844-15 15-15 15 6.714844 15 15zm0 0"/><path d="m391 90c0 8.285156-6.714844 15-15 15s-15-6.714844-15-15 6.714844-15 15-15 15 6.714844 15 15zm0 0"/><path d="m331 90c0 8.285156-6.714844 15-15 15s-15-6.714844-15-15 6.714844-15 15-15 15 6.714844 15 15zm0 0"/>
</svg>